<svg width="512" height="512" viewBox="0 0 512 512" fill="none" xmlns="http://www.w3.org/2000/svg">
<path d="M510.797 232.576C510.131 221.624 508.237 210.668 505.83 199.921C499.487 170.911 487.762 143.16 471.793 118.129C435.758 61.4656 376.591 19.8708 310.784 6.04676C301.13 3.80597 291.33 2.24904 281.457 1.38756C268.47 -0.0278118 255.386 -0.319027 242.35 0.517161C231.708 0.895768 221.113 2.12853 210.667 4.20356C201.093 5.53476 191.78 8.19716 182.507 10.7008C173.855 13.4144 165.258 16.4864 156.861 20.0192C148.85 23.3634 141.025 27.1389 133.422 31.3293C125.885 35.3948 118.587 39.889 111.565 44.7898C109.831 46.0631 108.018 47.226 106.138 48.2714C88.6323 34.9594 70.9222 21.9648 52.4953 9.98916C47.4316 6.86596 42.5164 3.33316 36.8332 1.43876C27.5199 -1.83804 16.6195 0.670761 9.29786 7.32676C2.32954 13.5066 -0.686143 23.1322 0.133057 32.2919C0.184257 44.4724 0.0818569 56.7092 0.235457 68.8896C0.0818569 81.1777 0.184257 93.5578 0.133057 105.846C0.081857 118.134 0.0818567 130.422 0.184257 142.71C0.0818567 157.046 0.0818567 171.36 0.184257 185.651C0.0818567 199.571 0.0989236 213.492 0.235457 227.415C0.337857 244.823 -0.583743 262.323 1.35674 279.675C2.73914 297.539 6.42554 315.249 11.7503 332.293C36.0089 411.576 101.473 477.189 181.12 500.383L181.171 500.69C197.755 505.605 214.799 509.24 231.997 510.566C251.085 512.41 270.433 512.358 289.423 509.445C299.612 508.677 309.591 506.168 319.57 503.967C331.025 500.92 342.283 497.174 353.28 492.749C363.571 488.346 373.76 483.584 383.432 477.85C392.023 472.989 400.296 467.586 408.202 461.676C417.447 454.856 426.218 447.419 434.458 439.414C440.804 433.253 446.819 426.758 452.475 419.958C458.032 413.328 463.249 406.421 468.106 399.263C472.509 392.714 476.605 385.905 480.548 379.044C484.587 371.267 488.479 363.484 491.96 355.451C495.749 345.825 499.487 336.154 502.144 326.175C504.397 317.983 506.854 309.791 507.674 301.348C509.824 292.444 510.797 283.075 511.155 273.966C512.391 260.191 512.271 246.328 510.797 232.576ZM417.029 198.999C413.906 207.293 408.427 214.405 401.925 220.344C396.247 225.976 390.615 231.654 384.932 237.338C378.895 243.374 372.854 249.365 366.868 255.457C361.083 261.187 355.297 266.921 349.517 272.758C343.219 279.05 336.87 285.348 330.629 291.646C323.461 298.86 316.247 305.982 309.079 313.19C302.321 320 295.516 326.753 288.707 333.563C281.897 340.373 274.99 347.228 268.18 354.089C261.888 360.126 256.154 366.833 249.042 372.009C240.164 377.554 229.867 380.4 219.402 380.201C207.324 379.433 195.502 374.677 186.798 366.177C160.031 339.41 133.245 312.615 106.44 285.793C99.8911 279.291 95.4879 270.899 93.1276 262.042C90.67 249.81 92.1036 236.708 98.4012 225.807C103.209 217.359 110.582 210.652 118.973 205.839C128.204 201.476 138.464 199.757 148.613 200.873C159.565 202.511 170.056 207.529 177.736 215.613C192.271 230.149 206.756 244.736 221.394 259.226C225.797 255.027 230.047 250.624 234.245 246.272C240.389 240.389 246.426 234.348 252.308 228.152C258.145 222.73 263.726 216.996 269.25 211.21C273.193 207.683 276.777 203.791 280.566 200.054C286.71 194.063 292.695 187.976 298.685 181.883C304.466 176.358 310.047 170.619 315.627 164.987C321.664 159.104 327.552 153.062 333.547 147.123C339.58 140.98 346.98 136.35 355.144 133.612C365.622 130.69 376.73 130.93 387.072 134.303C400.23 139.32 410.772 149.663 416.558 162.401C420.813 174.126 421.325 187.228 417.029 198.999Z" fill="black"/>
</svg>
