<svg width="512" height="512" viewBox="0 0 512 512" fill="none" xmlns="http://www.w3.org/2000/svg">
<rect width="512" height="512" rx="256" fill="black"/>
<path d="M171.718 423.182C160.225 421.394 149.171 417.452 139.136 411.562C116.501 398.556 99.6089 375.261 94.1878 349.599C92.078 339.562 91.8125 326.878 92.092 248.703C92.3574 164.579 92.1618 168.919 96.1578 155.059C98.1418 148.157 103.661 136.299 107.657 130.322C122.397 108.342 144.082 94.2302 170.95 89.1203C176.315 88.0983 184.083 88.0004 255.564 88.0004C342.903 88.0004 340.024 87.8744 354.29 92.3963C368.141 96.8864 380.778 104.502 391.228 114.658C401.678 124.813 409.662 137.237 414.565 150.971C419.176 164.089 419.399 166.189 419.721 200.74L419.941 225.333C419.978 229.476 417.952 233.366 414.537 235.712C406.741 241.045 396.513 250.551 382.178 265.811C365.663 283.395 348.98 299.69 340.513 306.508C322.224 321.222 305.472 329.622 288.454 332.604C279.596 334.144 264.953 333.542 256.29 331.274C248.564 329.258 249.067 328.922 246.147 337.77C243.774 344.771 242.281 352.042 241.704 359.413L241.428 363.034C241.345 364.136 240.313 364.914 239.231 364.691C222.255 361.317 205.433 346.701 198.936 329.692C196.739 324.26 195.509 318.484 195.303 312.626C195.16 309.576 193.82 306.706 191.574 304.638L190.762 303.89C181.764 295.63 175.91 285.523 174.065 275.037C171.103 258.335 178.816 239.449 195.554 222.454C213.215 204.492 239.245 190.394 264.758 184.935C273.951 182.975 290.159 182.457 298.332 183.885C314.232 186.656 327.212 194.706 335.288 206.83C337.831 210.624 338.012 211.17 337.761 214.6C337.696 217.121 336.797 219.549 335.204 221.502C328.707 230.616 309.384 240.373 288.594 245.021C251.917 253.211 228.598 243.033 232.245 220.396C232.608 218.114 232.804 216.14 232.678 216.014C232.231 215.566 228.584 217.47 224.644 220.214C217.951 224.89 212.027 233.99 209.973 242.711C209.47 244.895 209.275 248.395 209.498 251.811C209.778 256.445 210.239 258.167 212.181 262.115C213.466 264.719 216.023 268.415 217.882 270.361L219.736 272.304C220.596 273.205 220.663 274.602 219.894 275.583C215.938 280.776 212.752 286.514 210.435 292.62C207.805 300.829 207.301 309.572 208.967 318.03C210.407 324.484 214.85 333.36 219.293 338.582C222.674 342.572 230.428 349.277 231.672 349.277C232.007 349.277 232.287 348.605 232.287 347.793C232.301 344.573 234.857 334.172 236.842 329.216C242.752 314.404 255.718 301.776 276.242 290.856C279.666 289.037 289.544 284.277 298.206 280.259C317.208 271.439 327.589 266.049 333.29 261.989C349.721 250.327 359.879 233.08 363.19 211.24C364.392 203.26 364.392 188.364 363.19 180.343C358.048 146.211 332.522 123 295.873 119.164C255.005 114.866 202.987 146.505 170.936 195.14C155.343 218.8 144.808 245.049 140.379 271.341C138.661 281.533 138.018 300.46 139.08 309.84C141.776 333.696 150.565 352.931 165.668 368.023C173.232 375.641 182.076 381.863 191.796 386.405C224.882 402.224 261.516 402.574 293.721 387.399C307.637 380.833 321.302 370.655 335.959 355.899C350.21 341.55 359.851 329.58 386.146 293.488C400.677 273.567 412.19 260.337 417.89 257.019C418.82 256.485 419.978 257.16 419.971 258.232L419.721 299.088C419.469 340.99 419.413 342.585 418.002 348.941C409.619 386.433 382.513 413.844 345.418 422.328C341.072 423.324 336.629 423.83 332.17 423.838L258.191 423.966C192.047 424.078 176.469 423.938 171.718 423.182Z" fill="white"/>
</svg>
