<svg width="512" height="512" viewBox="0 0 512 512" fill="none" xmlns="http://www.w3.org/2000/svg">
<g clip-path="url(#clip0_791_178)">
<path d="M512 257.568C512 115.296 397.376 -0.0319824 256 -0.0319824C114.56 1.75796e-05 -0.0639648 115.296 -0.0639648 257.6C-0.0639648 386.144 93.568 492.704 215.936 512.032V332.032H150.976V257.6H216V200.8C216 136.256 254.24 100.608 312.704 100.608C340.736 100.608 370.016 105.632 370.016 105.632V168.992H337.728C305.952 168.992 296.032 188.864 296.032 209.248V257.568H367.008L355.68 332H296V512C418.368 492.672 512 386.112 512 257.568Z" fill="black"/>
</g>
<defs>
<clipPath id="clip0_791_178">
<rect width="512" height="512" fill="white"/>
</clipPath>
</defs>
</svg>
