<svg width="445" height="446" viewBox="0 0 445 446" fill="none" xmlns="http://www.w3.org/2000/svg">
<path d="M220.743 264.631C242.686 264.631 260.474 246.843 260.474 224.899C260.474 202.956 242.686 185.167 220.743 185.167C198.799 185.167 181.011 202.956 181.011 224.899C181.011 246.843 198.799 264.631 220.743 264.631Z" fill="black"/>
<path d="M270.407 127.375H171.078C156.63 127.375 143.988 131.89 135.861 140.017C127.734 148.144 123.219 160.786 123.219 175.234V274.564C123.219 289.012 127.734 301.654 136.764 310.684C145.794 318.811 157.533 323.326 171.981 323.326H270.407C284.855 323.326 297.497 318.811 305.624 310.684C314.654 302.557 319.169 289.915 319.169 275.467V176.137C319.169 161.689 314.654 149.95 306.527 140.92C297.497 131.89 285.758 127.375 270.407 127.375ZM220.743 286.303C186.429 286.303 159.339 258.31 159.339 224.899C159.339 190.585 187.332 163.495 220.743 163.495C254.153 163.495 283.049 190.585 283.049 224.899C283.049 259.213 255.056 286.303 220.743 286.303ZM284.855 175.234C276.728 175.234 270.407 168.913 270.407 160.786C270.407 152.659 276.728 146.338 284.855 146.338C292.982 146.338 299.303 152.659 299.303 160.786C299.303 168.913 292.982 175.234 284.855 175.234Z" fill="black"/>
<path d="M222.549 0.955811C99.7407 0.955811 0.41095 100.286 0.41095 223.093C0.41095 345.901 99.7407 445.231 222.549 445.231C345.356 445.231 444.686 345.901 444.686 223.093C445.589 100.286 345.356 0.955811 222.549 0.955811ZM340.841 275.467C340.841 296.236 333.617 314.296 320.975 326.938C308.333 339.58 290.273 345.901 270.407 345.901H171.981C152.115 345.901 134.055 339.58 121.413 326.938C107.868 314.296 101.547 296.236 101.547 275.467V176.137C101.547 134.6 129.54 105.704 171.981 105.704H271.31C292.079 105.704 309.236 112.928 321.878 125.57C334.52 138.212 340.841 155.369 340.841 176.137V275.467Z" fill="black"/>
</svg>
