<svg width="446" height="446" viewBox="0 0 446 446" fill="none" xmlns="http://www.w3.org/2000/svg">
<path d="M223.005 0.55542C100.182 0.55542 0.613743 100.123 0.613743 222.946C0.613743 345.787 100.182 445.337 223.005 445.337C345.809 445.337 445.377 345.787 445.377 222.946C445.377 100.132 345.8 0.55542 223.005 0.55542ZM346.866 330.967C346.866 340.865 338.648 348.867 328.524 348.867H117.034C106.892 348.867 98.6915 340.856 98.6915 330.967V117.029C98.6915 107.149 106.892 99.1298 117.034 99.1298H328.515C338.639 99.1298 346.857 107.158 346.857 117.029L346.862 223.998L346.866 330.967Z" fill="black"/>
<path d="M265.92 192.791C246.043 192.791 237.129 203.71 232.144 211.404V211.775H231.9C231.99 211.666 232.081 211.531 232.144 211.404V195.437H194.665C195.162 206.004 194.665 308.182 194.665 308.182H232.144V245.208C232.144 241.821 232.388 238.489 233.381 236.068C236.1 229.349 242.268 222.341 252.608 222.341C266.191 222.341 271.61 232.691 271.61 247.845V308.173H309.089V243.537C309.08 208.894 290.575 192.791 265.92 192.791Z" fill="black"/>
<path d="M155.425 141.052C142.61 141.052 134.211 149.487 134.211 160.55C134.211 171.361 142.339 180.039 154.928 180.039H155.172C168.24 180.039 176.377 171.361 176.377 160.55C176.133 149.487 168.249 141.052 155.425 141.052Z" fill="black"/>
<path d="M173.93 195.438H136.441V308.182H173.93V195.438Z" fill="black"/>
</svg>
