<svg width="512" height="512" viewBox="0 0 512 512" fill="none" xmlns="http://www.w3.org/2000/svg">
<rect width="512" height="512" rx="256" fill="black"/>
<path d="M254.933 76.0133H256.098C256.416 104.307 255.933 161.059 255.933 161.059C228.878 145.882 201.637 131.064 174.595 115.841C192.31 105.772 210.038 95.7275 227.779 85.7071C236.181 80.9661 245.213 76.894 254.926 76.0133H254.933Z" fill="#9A9A9A"/>
<path d="M256.032 76.0132H258.019C268.54 76.9601 278.062 81.9725 287.113 87.0578C303.993 96.5793 320.851 106.141 337.687 115.742C310.54 130.792 283.094 146.081 255.906 161.085C255.675 132.792 256.324 104.293 256.006 76L256.032 76.0132Z" fill="#8A8A8A"/>
<path d="M174.615 115.815L255.953 161.032L174.053 208.879C174.053 208.879 174.013 178.519 174.106 163.383C174.033 147.664 174.615 115.815 174.615 115.815Z" fill="#8A8A8A"/>
<path d="M337.78 115.742L338.012 115.868C337.946 144.068 338.012 172.269 338.012 200.469C337.966 203.23 337.939 208.925 337.939 208.925L255.959 161.065C255.959 161.065 310.639 130.812 337.807 115.742H337.78Z" fill="#9A9A9A"/>
<path d="M337.946 115.881C356.009 126.151 373.946 136.645 391.89 147.114C400.571 151.987 409.768 157.39 414.509 166.574C389.096 180.645 337.913 208.951 337.913 208.951C337.913 208.951 337.873 203.25 337.913 200.489C337.913 172.286 337.913 144.086 337.913 115.887L337.946 115.881Z" fill="#8A8A8A"/>
<path d="M122.79 145.538C139.773 135.606 174.562 115.821 174.562 115.821L174.105 208.879C174.105 208.879 123.121 180.771 97.7672 166.727C103.289 156.881 113.261 150.915 122.79 145.538Z" fill="#9A9A9A"/>
<path d="M255.88 161.059L337.86 208.932C337.86 208.932 311.48 223.499 298.383 230.544C284.385 238.49 255.946 254.262 255.946 254.262L174.066 208.879L255.88 161.059Z" fill="white"/>
<path d="M92 203.806C92.0728 191.338 91.8477 178.082 97.7341 166.727C123.121 180.771 174.053 208.878 174.053 208.878C146.66 224.717 119.399 240.794 92 256.652C92 239.039 92 221.433 92 203.806Z" fill="#8A8A8A"/>
<path d="M414.509 166.574C419.502 175.91 420.23 186.77 419.952 197.159V256.824L337.926 208.945C337.926 208.945 389.096 180.631 414.509 166.574Z" fill="#9A9A9A"/>
<path d="M174.053 208.879C174.178 208.826 255.933 254.262 255.933 254.262C255.933 254.262 255.933 301.731 255.979 324.952C256.112 332.428 255.933 347.538 255.933 347.538C228.606 332.454 201.425 317.238 174.092 302.154L174.046 301.949V208.879H174.053Z" fill="#E4E4E4"/>
<path d="M92 256.652C119.38 240.761 146.64 224.717 174.033 208.879C174.006 239.906 174.006 270.93 174.033 301.949C169.828 300.194 166.001 297.692 161.988 295.566C138.681 282.74 115.427 269.617 92 256.917V256.652Z" fill="#9A9A9A"/>
<path d="M337.913 208.945V266.008C337.827 278.105 338.217 290.156 337.913 302.247C310.626 317.079 255.926 347.538 255.926 347.538C255.926 347.538 256.105 332.428 255.973 324.952C255.973 301.731 255.926 254.262 255.926 254.262L337.913 208.945Z" fill="#F1F1F1"/>
<path d="M337.913 208.945C337.913 208.945 419.939 256.712 419.939 256.824C392.678 271.934 337.919 302.247 337.919 302.247C338.224 290.156 337.833 278.105 337.919 266.008V208.945H337.913Z" fill="#8A8A8A"/>
<path d="M92 256.917C115.413 269.637 138.635 282.74 161.988 295.586C166.001 297.711 169.828 300.221 174.033 301.969L174.079 302.174C148.935 316.843 123.783 331.518 98.6214 346.2C95.9728 342.194 94.6486 337.466 93.6752 332.792C92.0927 324.978 92 317.033 92 309.087V256.91V256.917Z" fill="#8A8A8A"/>
<path d="M419.939 256.824C419.978 275.132 419.939 293.44 419.939 311.749C420.203 323.488 419.859 335.996 413.602 346.346C390.957 333.103 337.899 302.247 337.899 302.247C337.899 302.247 392.678 271.934 419.939 256.824Z" fill="#9A9A9A"/>
<path d="M98.6214 346.167C123.783 331.476 148.944 316.805 174.105 302.154C173.94 333.162 174.158 364.177 174 395.179C156.188 385.136 138.423 375.014 120.704 364.813C112.407 359.913 103.919 354.463 98.6214 346.167Z" fill="#9A9A9A"/>
<path d="M174.106 302.154C201.439 317.238 228.62 332.454 255.946 347.537C228.666 363.429 174.039 395.212 174 395.179C174.159 364.177 173.94 333.162 174.106 302.154Z" fill="#8A8A8A"/>
<path d="M337.787 302.307L337.919 302.247C337.999 333.262 337.754 364.283 338.045 395.298L337.84 395.397C316.214 382.479 294.331 369.971 272.606 357.205C267.136 354.093 255.933 347.538 255.933 347.538C255.933 347.538 310.507 317.172 337.787 302.307Z" fill="#9A9A9A"/>
<path d="M337.919 302.247C340.336 303.896 390.977 333.116 413.622 346.346C410.404 351.842 405.305 355.874 400.167 359.483C391.877 365.058 383.031 369.726 374.41 374.745C362.286 381.598 350.242 388.59 338.045 395.271C337.754 364.257 337.999 333.235 337.919 302.221V302.247Z" fill="#8A8A8A"/>
<path d="M255.933 347.538V435.556C249.146 434.556 241.75 432.994 235.738 429.544C215.158 418.115 194.506 406.753 173.986 395.165C201.253 379.274 228.653 363.462 255.933 347.538Z" fill="#9A9A9A"/>
<path d="M255.933 347.538C255.933 347.538 267.136 354.093 272.606 357.205C294.331 369.971 316.214 382.479 337.84 395.397C316.744 407.069 295.65 418.766 274.559 430.491C269.286 433.407 263.44 435.135 257.429 435.556H255.933V347.538Z" fill="#8A8A8A"/>
</svg>
