<svg width="446" height="446" viewBox="0 0 446 446" fill="none" xmlns="http://www.w3.org/2000/svg">
<path d="M227.69 107.062C166.49 107.062 116.717 156.831 116.694 218.003C116.685 238.968 122.551 259.384 133.657 277.049L136.295 281.247L125.087 322.188L167.08 311.173L171.13 313.577C188.165 323.685 207.692 329.034 227.6 329.043H227.645C288.799 329.043 338.57 279.27 338.594 218.092C338.606 188.447 327.076 160.57 306.129 139.599C285.182 118.629 257.324 107.072 227.69 107.062ZM292.951 265.706C290.172 273.496 276.845 280.607 270.437 281.565C264.69 282.424 257.419 282.782 249.429 280.243C244.585 278.706 238.372 276.654 230.414 273.217C196.955 258.769 175.103 225.081 173.436 222.854C171.768 220.629 159.816 204.768 159.816 188.35C159.816 171.934 168.433 163.864 171.49 160.524C174.546 157.187 178.161 156.351 180.384 156.351C182.608 156.351 184.834 156.372 186.776 156.469C188.824 156.572 191.574 155.691 194.282 162.194C197.061 168.874 203.731 185.291 204.566 186.961C205.4 188.63 205.955 190.578 204.844 192.804C203.732 195.028 203.177 196.421 201.509 198.368C199.841 200.316 198.005 202.716 196.505 204.211C194.836 205.875 193.097 207.68 195.042 211.018C196.989 214.358 203.682 225.28 213.598 234.125C226.338 245.487 237.085 249.01 240.421 250.679C243.756 252.35 245.702 252.069 247.647 249.845C249.593 247.619 255.986 240.105 258.209 236.766C260.432 233.428 262.656 233.985 265.713 235.097C268.77 236.212 285.169 244.279 288.505 245.948C291.84 247.618 294.063 248.453 294.897 249.845C295.73 251.235 295.73 257.913 292.951 265.706Z" fill="black"/>
<path d="M222.766 0.498047C99.9473 0.498047 0.376587 100.051 0.376587 222.869C0.376587 345.688 99.9473 445.258 222.766 445.258C345.575 445.258 445.146 345.688 445.146 222.869C445.146 100.051 345.575 0.498047 222.766 0.498047ZM227.646 351.589C227.642 351.589 227.649 351.589 227.646 351.589H227.591C205.25 351.58 183.297 345.975 163.8 335.341L93.0359 353.903L111.974 284.731C100.292 264.487 94.1458 241.524 94.1557 217.996C94.1846 144.397 154.069 84.5174 227.645 84.5174C263.354 84.5318 296.871 98.4333 322.073 123.665C347.276 148.896 361.148 182.434 361.135 218.103C361.103 291.703 301.216 351.589 227.646 351.589Z" fill="black"/>
</svg>
