<svg id="Layer_1" data-name="Layer 1" xmlns="http://www.w3.org/2000/svg" viewBox="0 0 32 96"><defs><style>.cls-1{fill:#1dd8cf}.cls-2{fill:none;stroke:#212121;stroke-linecap:round;stroke-linejoin:round}</style></defs><path class="cls-1" d="M27.75 9.55H8a1.54 1.54 0 00-1.54 1.54v12.65A1.54 1.54 0 008 25.28h19.8a1.54 1.54 0 001.55-1.54V11.09a1.54 1.54 0 00-1.6-1.54z"/><rect class="cls-2" x="2.7" y="6.72" width="24" height="16.5" rx="2"/><path class="cls-2" d="M3.31 7.29l7.91 7.41 1.45 1.35a3 3 0 004.06 0l1.45-1.35 7.92-7.41M9.75 16.18l-6.46 6.45M26.12 22.63l-6.46-6.45"/><g><path class="cls-1" d="M27.84 42.5H24.4v-1a1 1 0 00-1-1h-3.64a1 1 0 00-1 1v1H9.09A1.48 1.48 0 007.63 44v12.25a1.48 1.48 0 001.46 1.5h18.75a1.48 1.48 0 001.46-1.5V44a1.48 1.48 0 00-1.46-1.5z"/><path class="cls-2" d="M24.78 39.27a1.92 1.92 0 011.92 1.92v13.62a1.93 1.93 0 01-1.92 1.93M14.71 56.74H4.62a1.93 1.93 0 01-1.92-1.93V41.19a1.92 1.92 0 011.92-1.92h10M17.86 51.3v-6.6a1.17 1.17 0 00-.55-1 1.22 1.22 0 01-.62-1.06v-4a1.22 1.22 0 011.22-1.22h4a1.23 1.23 0 011.23 1.22v4a1.22 1.22 0 01-.62 1.06 1.15 1.15 0 00-.55 1v6.6a1.14 1.14 0 00.55 1 1.24 1.24 0 01.62 1.07v4a1.23 1.23 0 01-1.23 1.22h-4a1.22 1.22 0 01-1.22-1.22v-4a1.24 1.24 0 01.62-1.07 1.14 1.14 0 00.55-1z"/><path class="cls-2" d="M9.55 42.5h2.76a1.5 1.5 0 011.5 1.5v8a1.5 1.5 0 01-1.5 1.5H7.23a1.5 1.5 0 01-1.5-1.5v-8a1.5 1.5 0 011.5-1.5"/></g><g><path class="cls-1" d="M28.08 91l-5.73-5.63 2-2.35a10 10 0 001.47-10.38 9.24 9.24 0 00-1.16-1.79c-.37-.45-.66-.74-.66-.74a9.62 9.62 0 00-13.59 0 10.08 10.08 0 00-1.81 2.57 9.56 9.56 0 001.47 10.38l2 2.36L6.36 91a1.31 1.31 0 001.13 2h19.45a1.32 1.32 0 001.14-2zM16.33 80.62a3.57 3.57 0 113.57-3.57 3.57 3.57 0 01-3.57 3.57z"/><path class="cls-2" d="M21.1 86.15l3.12 3A1.23 1.23 0 0123.16 91H5a1.23 1.23 0 01-1.06-1.84l3.13-3"/><path class="cls-2" d="M22.12 72a8.93 8.93 0 01-1.37 9.7l-4.82 5.62a2.45 2.45 0 01-3.72 0l-4.82-5.63A8.92 8.92 0 016 72a9.3 9.3 0 011.7-2.37 9 9 0 0112.71 0"/><circle class="cls-2" cx="14.07" cy="76.03" r="3.15"/></g></svg>