<svg xmlns="http://www.w3.org/2000/svg" viewBox="0 0 52.93 53.4"><defs><style>.lnews-article-svg-1{fill:#1e88e5;}.lnews-article-svg-2{fill:#424242;}</style></defs> <g id="Layer_2" data-name="Layer 2"><g id="Layer_2-2" data-name="Layer 2"><path class="lnews-article-svg-1" d="M35.86,21H17.07V5.6H35.86Z"/><path class="lnews-article-svg-1" d="M49.52,41.45H30.73V26.08H49.52Z"/><rect class="lnews-article-svg-2" x="37.56" y="5.6" width="11.95" height="1.71"/><rect class="lnews-article-svg-2" x="37.56" y="9.01" width="11.95" height="1.71"/><rect class="lnews-article-svg-2" x="37.56" y="12.43" width="11.95" height="1.71"/><rect class="lnews-article-svg-2" x="37.56" y="15.84" width="11.95" height="1.71"/><rect class="lnews-article-svg-2" x="37.56" y="19.25" width="8.54" height="1.71"/><rect class="lnews-article-svg-2" x="17.07" y="26.08" width="11.95" height="1.71"/><rect class="lnews-article-svg-2" x="20.49" y="29.5" width="8.54" height="1.71"/><rect class="lnews-article-svg-2" x="17.07" y="32.91" width="11.95" height="1.71"/><rect class="lnews-article-svg-2" x="17.07" y="36.33" width="11.95" height="1.71"/><rect class="lnews-article-svg-2" x="17.07" y="39.74" width="8.54" height="1.71"/><path class="lnews-article-svg-2" d="M48.32,2.1,44.56.39,40.8,2.1,37,.39,33.29,2.1,29.53.39,25.78,2.1,22,.39,18.27,2.1,13.66,0V10.72H12v1.71h1.71V40.6a2.56,2.56,0,1,1-5.12,0V15a4.21,4.21,0,0,0-.88-2.56h2.58V10.72h-6A4.27,4.27,0,0,0,0,15V53.4H39.27V44.87h9.39a4.27,4.27,0,0,0,4.27-4.27V0ZM37.56,51.7H1.71V15a2.56,2.56,0,0,1,5.12,0V40.6a4.27,4.27,0,0,0,4.27,4.27H37.56ZM51.22,40.6a2.56,2.56,0,0,1-2.56,2.56H14.51a4.22,4.22,0,0,0,.86-2.56V2.65L18.27,4,22,2.26,25.77,4l3.76-1.71L33.29,4,37,2.26,40.8,4l3.75-1.71L48.31,4l2.91-1.32Z"/><rect class="lnews-article-svg-2" x="47.81" y="19.25" width="1.71" height="1.71"/><rect class="lnews-article-svg-2" x="17.07" y="29.5" width="1.71" height="1.71"/><rect class="lnews-article-svg-2" x="27.32" y="39.74" width="1.71" height="1.71"/></g></g></svg>